<svg width="114" height="36" viewBox="0 0 114 36" fill="none" xmlns="http://www.w3.org/2000/svg">
<rect y="2.2594" width="31.1695" height="31.4812" rx="6.2339" fill="#1D4ED8"/>
<path d="M10.0254 24.1828C8.8776 24.1828 7.84917 23.9299 6.94006 23.4242C6.03663 22.9185 5.32071 22.1827 4.79229 21.2168C4.26955 20.2452 4.00818 19.0633 4.00818 17.6712C4.00818 16.2735 4.27239 15.0888 4.80081 14.1172C5.33491 13.1399 6.05652 12.4012 6.96563 11.9012C7.88042 11.3955 8.90033 11.1427 10.0254 11.1427C10.7924 11.1427 11.5027 11.2507 12.1561 11.4666C12.8095 11.6768 13.3834 11.9865 13.8777 12.3956C14.3777 12.8047 14.7811 13.3047 15.088 13.8956C15.3948 14.4865 15.588 15.1627 15.6675 15.9241H12.5652C12.5254 15.6059 12.4402 15.3189 12.3095 15.0632C12.1845 14.8019 12.014 14.5803 11.7981 14.3985C11.5879 14.2166 11.3407 14.0774 11.0566 13.9808C10.7725 13.8786 10.4543 13.8274 10.1021 13.8274C9.48841 13.8274 8.95999 13.9808 8.5168 14.2877C8.07361 14.5888 7.73269 15.0263 7.49405 15.6002C7.25541 16.1684 7.13609 16.8587 7.13609 17.6712C7.13609 18.5065 7.25541 19.2111 7.49405 19.7849C7.73837 20.3531 8.07929 20.7821 8.5168 21.0719C8.95999 21.356 9.48557 21.498 10.0935 21.498C10.4288 21.498 10.7356 21.4554 11.014 21.3702C11.2924 21.2793 11.5367 21.1514 11.747 20.9867C11.9629 20.8162 12.139 20.6117 12.2754 20.373C12.4175 20.1287 12.4678 20.026 12.6236 19.7143H15.5847C15.5279 20.2768 15.4488 20.6656 15.1817 21.2168C14.9147 21.7679 14.5425 22.2679 14.0652 22.7168C13.5936 23.16 13.0197 23.5151 12.3436 23.7822C11.6674 24.0492 10.8947 24.1828 10.0254 24.1828Z" fill="white"/>
<path d="M21.2355 24.0927C20.1729 24.0927 19.2468 23.9336 18.457 23.6154C17.6672 23.2915 17.0507 22.8057 16.6075 22.158C16.17 21.5045 15.9456 20.6835 15.9342 19.6948H18.8661C18.8945 20.0983 19.0053 20.4392 19.1985 20.7176C19.3973 20.9903 19.6644 21.1977 19.9996 21.3398C20.3405 21.4818 20.7383 21.5528 21.1928 21.5528C21.6076 21.5528 21.9599 21.496 22.2497 21.3824C22.5451 21.2687 22.7724 21.1125 22.9315 20.9136C23.0906 20.7148 23.1702 20.4846 23.1702 20.2233C23.1702 19.9846 23.0963 19.7829 22.9486 19.6181C22.8008 19.4477 22.5764 19.2999 22.2753 19.1749C21.9798 19.0443 21.5991 18.9278 21.1332 18.8255L19.7951 18.5187C18.7042 18.2687 17.8433 17.8624 17.2126 17.2999C16.5819 16.7317 16.2666 15.9618 16.2666 14.9902C16.2666 14.2061 16.4797 13.5186 16.9058 12.9277C17.332 12.3367 17.9172 11.8765 18.6615 11.5469C19.4116 11.2174 20.2695 11.0526 21.2355 11.0526C22.2184 11.0526 23.0736 11.2202 23.8009 11.5555C24.5281 11.885 25.0907 12.3509 25.4884 12.9532C25.8861 13.5498 26.0907 14.243 26.102 15.0328H23.1531C23.119 14.5783 22.9372 14.226 22.6076 13.976C22.2838 13.7203 21.8235 13.5924 21.2269 13.5924C20.8292 13.5924 20.4968 13.6436 20.2298 13.7459C19.9684 13.8481 19.7695 13.9902 19.6331 14.172C19.5025 14.3538 19.4371 14.5584 19.4371 14.7856C19.4371 15.0357 19.511 15.2487 19.6587 15.4249C19.8064 15.601 20.0195 15.7487 20.2979 15.8681C20.582 15.9874 20.9144 16.0897 21.2951 16.1749L22.3775 16.422C23.0025 16.5584 23.5565 16.7402 24.0395 16.9675C24.5225 17.1948 24.9287 17.4647 25.2583 17.7772C25.5935 18.0897 25.8463 18.4505 26.0168 18.8596C26.1873 19.2687 26.2725 19.7261 26.2725 20.2318C26.2725 21.0386 26.0708 21.7318 25.6674 22.3114C25.2696 22.8853 24.6958 23.3256 23.9457 23.6324C23.1957 23.9393 22.2923 24.0927 21.2355 24.0927Z" fill="white"/>
<path d="M42.8519 15.1569C41.7954 15.1569 40.8488 14.9242 40.0121 14.4587C39.1805 13.9933 38.5216 13.316 38.0352 12.4269C37.554 11.5326 37.3135 10.4448 37.3135 9.16352C37.3135 7.87698 37.5567 6.78656 38.043 5.89226C38.5346 4.99273 39.1988 4.31285 40.0356 3.85263C40.8776 3.38717 41.8164 3.15445 42.8519 3.15445C43.5579 3.15445 44.2116 3.25381 44.813 3.45255C45.4145 3.64605 45.9427 3.93108 46.3977 4.30762C46.8579 4.68417 47.2292 5.1444 47.5116 5.6883C47.794 6.2322 47.9719 6.85455 48.0451 7.55534H45.1896C45.153 7.26247 45.0745 6.99837 44.9542 6.76303C44.8392 6.52245 44.6823 6.31849 44.4836 6.15114C44.2901 5.98378 44.0626 5.85565 43.8011 5.76674C43.5396 5.67261 43.2467 5.62554 42.9225 5.62554C42.3576 5.62554 41.8713 5.76674 41.4633 6.04916C41.0554 6.32634 40.7416 6.72903 40.522 7.25724C40.3023 7.78023 40.1925 8.41565 40.1925 9.16352C40.1925 9.9323 40.3023 10.5808 40.522 11.109C40.7469 11.632 41.0606 12.0268 41.4633 12.2936C41.8713 12.5551 42.355 12.6858 42.9146 12.6858C43.2232 12.6858 43.5056 12.6466 43.7618 12.5681C44.0181 12.4845 44.243 12.3668 44.4365 12.2151C44.6352 12.0582 44.7974 11.87 44.9229 11.6503C45.0536 11.4254 45.1425 11.1718 45.1896 10.8894H48.0451C47.9928 11.4071 47.8437 11.9196 47.5979 12.4269C47.3521 12.9342 47.0096 13.3944 46.5703 13.8076C46.1362 14.2155 45.608 14.5424 44.9856 14.7882C44.3633 15.034 43.652 15.1569 42.8519 15.1569ZM54.6582 15.1569C53.607 15.1569 52.6578 14.9242 51.8105 14.4587C50.9685 13.9933 50.3017 13.316 49.8101 12.4269C49.3238 11.5326 49.0806 10.4448 49.0806 9.16352C49.0806 7.87698 49.3238 6.78656 49.8101 5.89226C50.3017 4.99273 50.9685 4.31285 51.8105 3.85263C52.6578 3.38717 53.607 3.15445 54.6582 3.15445C55.7041 3.15445 56.6481 3.38717 57.4901 3.85263C58.3321 4.31285 58.9989 4.99273 59.4905 5.89226C59.9821 6.78656 60.2279 7.87698 60.2279 9.16352C60.2279 10.4448 59.9821 11.5326 59.4905 12.4269C58.9989 13.3212 58.3321 14.0011 57.4901 14.4666C56.6481 14.9268 55.7041 15.1569 54.6582 15.1569ZM54.6582 12.6858C55.2178 12.6858 55.6989 12.5498 56.1016 12.2779C56.5043 12.0059 56.8129 11.6085 57.0273 11.0855C57.2417 10.5625 57.3489 9.92184 57.3489 9.16352C57.3489 8.39996 57.2417 7.75669 57.0273 7.23371C56.8129 6.7055 56.5043 6.30542 56.1016 6.03347C55.6989 5.76151 55.2178 5.62554 54.6582 5.62554C54.0986 5.62554 53.6174 5.76151 53.2148 6.03347C52.8121 6.30542 52.5009 6.7055 52.2812 7.23371C52.0668 7.75669 51.9596 8.39996 51.9596 9.16352C51.9596 9.92184 52.0668 10.5625 52.2812 11.0855C52.5009 11.6085 52.8121 12.0059 53.2148 12.2779C53.6174 12.5498 54.0986 12.6858 54.6582 12.6858ZM71.3675 3.31134V15H68.9827L64.3307 8.25353H64.2445V15H61.4282V3.31134H63.8601L68.4571 10.0421H68.5512V3.31134H71.3675ZM72.3167 5.60985V3.31134H82.1854V5.60985H78.6395V15H75.8625V5.60985H72.3167ZM83.1267 15V3.31134H91.2774V5.60985H85.943V7.97112H90.8538V10.2147H85.943V12.7015H91.2696V15H83.1267ZM102.527 3.31134V15H100.142L95.49 8.25353H95.4037V15H92.5875V3.31134H95.0194L99.6164 10.0421H99.7105V3.31134H102.527ZM103.476 5.60985V3.31134H113.345V5.60985H109.799V15H107.022V5.60985H103.476ZM41.9811 33.1569C41.0031 33.1569 40.1507 33.0105 39.4237 32.7176C38.6968 32.4195 38.1293 31.9723 37.7214 31.3761C37.3187 30.7747 37.1121 30.019 37.1017 29.109H39.8003C39.8264 29.4803 39.9284 29.7941 40.1062 30.0504C40.2892 30.3014 40.535 30.4923 40.8436 30.623C41.1574 30.7538 41.5235 30.8192 41.9419 30.8192C42.3236 30.8192 42.6479 30.7669 42.9146 30.6623C43.1866 30.5577 43.3958 30.4139 43.5422 30.2308C43.6886 30.0478 43.7618 29.836 43.7618 29.5954C43.7618 29.3757 43.6939 29.1901 43.5579 29.0384C43.4219 28.8815 43.2153 28.7455 42.9381 28.6305C42.6662 28.5102 42.3158 28.403 41.887 28.3088L40.6553 28.0264C39.6512 27.7963 38.8589 27.4224 38.2784 26.9046C37.6979 26.3817 37.4076 25.673 37.4076 24.7787C37.4076 24.057 37.6037 23.4242 37.996 22.8803C38.3882 22.3364 38.9269 21.9128 39.612 21.6094C40.3023 21.3061 41.092 21.1544 41.9811 21.1544C42.8858 21.1544 43.6729 21.3087 44.3424 21.6173C45.0118 21.9206 45.5295 22.3495 45.8956 22.9038C46.2617 23.453 46.45 24.091 46.4604 24.8179H43.7462C43.7148 24.3996 43.5474 24.0753 43.2441 23.8452C42.946 23.6099 42.5224 23.4922 41.9732 23.4922C41.6072 23.4922 41.3012 23.5392 41.0554 23.6334C40.8148 23.7275 40.6318 23.8583 40.5063 24.0256C40.386 24.193 40.3259 24.3812 40.3259 24.5904C40.3259 24.8206 40.3938 25.0167 40.5298 25.1788C40.6658 25.3409 40.8619 25.4769 41.1182 25.5867C41.3797 25.6966 41.6856 25.7907 42.036 25.8691L43.0323 26.0966C43.6076 26.2221 44.1175 26.3895 44.562 26.5987C45.0065 26.8079 45.3805 27.0563 45.6838 27.3439C45.9924 27.6316 46.2251 27.9637 46.382 28.3402C46.5389 28.7168 46.6173 29.1378 46.6173 29.6032C46.6173 30.3459 46.4317 30.9839 46.0604 31.5173C45.6943 32.0456 45.1661 32.4509 44.4757 32.7333C43.7854 33.0157 42.9538 33.1569 41.9811 33.1569ZM47.2292 23.6099V21.3113H57.0979V23.6099H53.5521V33H50.775V23.6099H47.2292ZM58.0393 33V21.3113H62.8559C63.7345 21.3113 64.4929 21.4709 65.1309 21.7899C65.7689 22.1037 66.2606 22.5534 66.6057 23.1392C66.9561 23.7197 67.1313 24.4074 67.1313 25.2023C67.1313 26.013 66.9535 26.7007 66.5979 27.2655C66.2475 27.8303 65.7454 28.2618 65.0917 28.5599C64.438 28.8527 63.6666 28.9992 62.7775 28.9992H59.7259V26.7713H62.2519C62.6755 26.7713 63.0311 26.7164 63.3188 26.6065C63.6116 26.4967 63.8313 26.3267 63.9777 26.0966C64.1294 25.8613 64.2052 25.5632 64.2052 25.2023C64.2052 24.8415 64.1294 24.5434 63.9777 24.308C63.8313 24.0675 63.6116 23.8896 63.3188 23.7746C63.0311 23.6543 62.6729 23.5942 62.244 23.5942H60.8555V33H58.0393ZM64.4406 33L61.5929 27.6577H64.6132L67.5314 33H64.4406ZM68.2374 33V21.3113H76.3881V23.6099H71.0537V25.9711H75.9645V28.2147H71.0537V30.7015H76.3803V33H68.2374ZM80.2163 33H77.1804L81.1342 21.3113H84.884L88.8299 33H85.8018L83.0561 24.2531H82.962L80.2163 33ZM79.8241 28.3951H86.1705V30.5446H79.8241V28.3951ZM89.6379 21.3113H93.1366L96.1019 28.5442H96.2353L99.2084 21.3113H102.715V33H99.9459V25.8142H99.8674L97.0433 32.9216H95.2861L92.4855 25.7907H92.3914V33H89.6379V21.3113Z" fill="black"/>
</svg>
